<svg xmlns="http://www.w3.org/2000/svg" xmlns:xlink="http://www.w3.org/1999/xlink" width="20" height="20" viewBox="0 0 20 20"><defs><path id="kxica" d="M1210 226v-20h20v20z"/><path id="kxicb" d="M1220.922 219.221a5.124 5.124 0 0 0 1.618-1.098 5.124 5.124 0 0 0 1.098-1.618c.26-.618.39-1.274.39-1.967 0-.694-.13-1.35-.39-1.968a5.124 5.124 0 0 0-1.098-1.618 5.124 5.124 0 0 0-1.618-1.098 5.019 5.019 0 0 0-1.968-.39c-.694 0-1.35.13-1.968.39a5.124 5.124 0 0 0-1.618 1.098 4.903 4.903 0 0 0-1.081 1.618 4.845 4.845 0 0 0-.407 1.968c0 .693.136 1.35.407 1.967.25.607.61 1.147 1.081 1.618a5.124 5.124 0 0 0 1.618 1.098c.618.26 1.274.39 1.968.39s1.35-.13 1.968-.39zm6.207 2.645c.108.12.163.26.163.423a.608.608 0 0 1-.163.423.608.608 0 0 1-.423.163.552.552 0 0 1-.407-.163l-3.353-3.353c-1.161.955-2.49 1.433-3.988 1.433-1.725 0-3.198-.61-4.419-1.831-1.22-1.221-1.83-2.694-1.83-4.42 0-1.725.61-3.198 1.83-4.418 1.221-1.221 2.694-1.831 4.42-1.831 1.725 0 3.198.61 4.418 1.83 1.221 1.221 1.831 2.694 1.831 4.42 0 1.497-.477 2.826-1.432 3.987z"/></defs><g><g transform="translate(-1210 -206)"><g><use fill="#fff" xlink:href="#kxica"/></g><g><use fill="#395244" xlink:href="#kxicb"/></g></g></g></svg>