<svg xmlns="http://www.w3.org/2000/svg" xmlns:xlink="http://www.w3.org/1999/xlink" width="20" height="20" viewBox="0 0 20 20"><defs><path id="97mua" d="M364.25 291.892v-.118c-.026-.43-.27-.84-.732-1.23-.463-.39-1.052-.586-1.768-.586-.742 0-1.348.202-1.816.605-.47.404-.704.827-.704 1.27 0 .443.235.866.704 1.27.468.403 1.074.605 1.816.605.716 0 1.305-.195 1.768-.586.462-.39.706-.8.732-1.23zm7.246-10.586c.117.117.176.26.176.43 0 .169-.059.318-.176.448a.652.652 0 0 1-.45.176.585.585 0 0 1-.429-.176l-5.117-5.117v14.766c0 .86-.365 1.595-1.094 2.207-.729.612-1.614.918-2.656.918-1.029 0-1.91-.306-2.646-.918-.736-.612-1.104-1.348-1.104-2.207 0-.86.368-1.595 1.104-2.207.735-.612 1.617-.918 2.646-.918.482 0 .934.068 1.357.205.424.137.804.329 1.143.576v-13.828a.601.601 0 0 1 .41-.586.592.592 0 0 1 .381-.068c.137.02.25.081.342.185z"/><linearGradient id="97mub" x1="371.67" x2="358" y1="293.79" y2="284.98" gradientUnits="userSpaceOnUse"><stop offset="0" stop-color="#cbcbcb"/><stop offset="1" stop-color="#9b9b9b"/></linearGradient></defs><g><g transform="translate(-355 -275)"><g><use fill="url(#97mub)" xlink:href="#97mua"/></g></g></g></svg>