<svg xmlns="http://www.w3.org/2000/svg" xmlns:xlink="http://www.w3.org/1999/xlink" width="16" height="17" viewBox="0 0 16 17"><defs><path id="b1caa" d="M495.5 212.25a.48.48 0 0 0-.148-.352.48.48 0 0 0-.352-.148.48.48 0 0 0-.352.148.48.48 0 0 0-.148.352v5c0 .073.013.14.04.203a.388.388 0 0 0 .116.156l.008.008c.005.005.008.013.008.024l2.484 2.468c.094.105.211.157.352.157.14 0 .258-.052.351-.157a.477.477 0 0 0 .141-.351.477.477 0 0 0-.14-.352l-2.36-2.36zm-3.227 11.46a7.065 7.065 0 0 1-2.218-1.507 7.228 7.228 0 0 1-1.5-2.226 6.753 6.753 0 0 1-.555-2.727c0-.969.185-1.878.555-2.727.37-.849.87-1.588 1.5-2.218.63-.63 1.37-1.13 2.218-1.5a6.753 6.753 0 0 1 2.727-.555c.969 0 1.878.185 2.727.555.849.37 1.588.87 2.218 1.5.63.63 1.13 1.37 1.5 2.218.37.85.555 1.758.555 2.727 0 .969-.185 1.878-.555 2.727a7.228 7.228 0 0 1-1.5 2.226 7.065 7.065 0 0 1-2.218 1.508 6.753 6.753 0 0 1-2.727.555 6.753 6.753 0 0 1-2.727-.555zm-.39-13.835a8.028 8.028 0 0 0-2.547 1.71 8.028 8.028 0 0 0-1.711 2.548 7.841 7.841 0 0 0-.625 3.117c0 1.104.208 2.143.625 3.117a8.028 8.028 0 0 0 1.71 2.547 8.028 8.028 0 0 0 2.548 1.711 7.841 7.841 0 0 0 3.117.625 7.841 7.841 0 0 0 3.117-.625 8.028 8.028 0 0 0 2.547-1.71 8.028 8.028 0 0 0 1.711-2.548 7.841 7.841 0 0 0 .625-3.117 7.841 7.841 0 0 0-.625-3.117 8.028 8.028 0 0 0-1.71-2.547 8.028 8.028 0 0 0-2.548-1.711 7.841 7.841 0 0 0-3.117-.625 7.841 7.841 0 0 0-3.117.625z"/></defs><g><g transform="translate(-487 -209)"><use fill="#9b9b9b" xlink:href="#b1caa"/></g></g></svg>