<svg xmlns="http://www.w3.org/2000/svg" xmlns:xlink="http://www.w3.org/1999/xlink" width="16" height="16" viewBox="0 0 16 16"><defs><path id="u3ypa" d="M208.5 219a.48.48 0 0 0-.352.148.48.48 0 0 0-.148.352v1c0 .135.05.253.148.352a.48.48 0 0 0 .352.148h1a.48.48 0 0 0 .352-.148.48.48 0 0 0 .148-.352v-1a.48.48 0 0 0-.148-.352.48.48 0 0 0-.352-.148zm0-4a.48.48 0 0 0-.352.148.48.48 0 0 0-.148.352v1c0 .135.05.253.148.352a.48.48 0 0 0 .352.148h1a.48.48 0 0 0 .352-.148.48.48 0 0 0 .148-.352v-1a.48.48 0 0 0-.148-.352.48.48 0 0 0-.352-.148zm4 0a.48.48 0 0 0-.352.148.48.48 0 0 0-.148.352v1c0 .135.05.253.148.352a.48.48 0 0 0 .352.148h1a.48.48 0 0 0 .352-.148.48.48 0 0 0 .148-.352v-1a.48.48 0 0 0-.148-.352.48.48 0 0 0-.352-.148zm0 4a.48.48 0 0 0-.352.148.48.48 0 0 0-.148.352v1c0 .135.05.253.148.352a.48.48 0 0 0 .352.148h1a.48.48 0 0 0 .352-.148.48.48 0 0 0 .148-.352v-1a.48.48 0 0 0-.148-.352.48.48 0 0 0-.352-.148zm5 2a.48.48 0 0 0 .352-.148.48.48 0 0 0 .148-.352v-1a.48.48 0 0 0-.148-.352.48.48 0 0 0-.352-.148h-1a.48.48 0 0 0-.352.148.48.48 0 0 0-.148.352v1c0 .135.05.253.148.352a.48.48 0 0 0 .352.148zm0-4a.48.48 0 0 0 .352-.148.48.48 0 0 0 .148-.352v-1a.48.48 0 0 0-.148-.352.48.48 0 0 0-.352-.148h-1a.48.48 0 0 0-.352.148.48.48 0 0 0-.148.352v1c0 .135.05.253.148.352a.48.48 0 0 0 .352.148zm-11.5 7v-12.5h4v.5c0 .135.05.253.148.352a.48.48 0 0 0 .352.148.48.48 0 0 0 .352-.148A.48.48 0 0 0 211 212v-.5h4v.5c0 .135.05.253.148.352a.48.48 0 0 0 .352.148.48.48 0 0 0 .352-.148A.48.48 0 0 0 216 212v-.5h4V224zm10-13.5v-1a.48.48 0 0 0-.148-.352.48.48 0 0 0-.352-.148.48.48 0 0 0-.352.148.48.48 0 0 0-.148.352v1h-4v-1a.48.48 0 0 0-.148-.352.48.48 0 0 0-.352-.148.48.48 0 0 0-.352.148.48.48 0 0 0-.148.352v1h-4a.966.966 0 0 0-.71.29.966.966 0 0 0-.29.71V224c0 .27.096.505.29.703.192.198.429.297.71.297h14a.953.953 0 0 0 .71-.297.974.974 0 0 0 .29-.703v-12.5a.966.966 0 0 0-.29-.71.966.966 0 0 0-.71-.29z"/></defs><g><g transform="translate(-205 -209)"><use fill="#9b9b9b" xlink:href="#u3ypa"/></g></g></svg>