<svg xmlns="http://www.w3.org/2000/svg" xmlns:xlink="http://www.w3.org/1999/xlink" width="20" height="20" viewBox="0 0 20 20"><defs><path id="pxsha" d="M410.186 282.31a.6.6 0 0 0-.186.44v2.595c0 .924-.085 1.734-.254 2.43-.17.696-.42 1.272-.752 1.727a3.11 3.11 0 0 1-1.26 1.025c-.507.228-1.106.341-1.796.341h-1.856c-.885 0-1.598-.169-2.139-.507a3.458 3.458 0 0 1-1.24-1.308 5.273 5.273 0 0 1-.566-1.785 13.985 13.985 0 0 1-.137-1.923v-2.595a.6.6 0 0 0-.186-.44.6.6 0 0 0-.439-.185.6.6 0 0 0-.44.185.6.6 0 0 0-.185.44v2.595c0 1.08.11 2.04.332 2.879.221.84.557 1.548 1.006 2.127a4.342 4.342 0 0 0 1.67 1.318c.664.299 1.439.448 2.324.448h.293v1.874h-3.125a.6.6 0 0 0-.44.185.6.6 0 0 0-.185.44.6.6 0 0 0 .186.439.6.6 0 0 0 .439.185h7.5a.6.6 0 0 0 .44-.185.6.6 0 0 0 .185-.44.6.6 0 0 0-.186-.439.6.6 0 0 0-.439-.185h-3.125v-1.874h.312c.612 0 1.231-.09 1.856-.273.625-.182 1.195-.52 1.709-1.015.514-.494.934-1.18 1.26-2.059.325-.878.488-2.02.488-3.425v-2.595a.6.6 0 0 0-.186-.44.6.6 0 0 0-.439-.185.6.6 0 0 0-.44.185zm-6.514-5.224c.364-.39.8-.586 1.308-.586h.137c.508 0 .928.192 1.26.576.332.384.498.863.498 1.436v7.441c0 .534-.16.967-.479 1.299-.319.332-.745.498-1.279.498h-.137c-.546 0-.992-.166-1.337-.498-.345-.332-.518-.765-.518-1.299v-7.441c0-.56.182-1.035.547-1.426zM405.117 289c.873 0 1.592-.286 2.158-.86.567-.572.85-1.301.85-2.187v-7.441c0-.912-.29-1.683-.87-2.315-.579-.631-1.291-.947-2.138-.947h-.137c-.859 0-1.591.319-2.197.957-.605.638-.908 1.406-.908 2.305v7.441c0 .873.296 1.598.889 2.178.592.58 1.331.869 2.216.869z"/><linearGradient id="pxshb" x1="411.25" x2="398.75" y1="294.08" y2="285.25" gradientUnits="userSpaceOnUse"><stop offset="0" stop-color="#cbcbcb"/><stop offset="1" stop-color="#9b9b9b"/></linearGradient></defs><g><g transform="translate(-395 -275)"><g><use fill="url(#pxshb)" xlink:href="#pxsha"/></g></g></g></svg>