<svg xmlns="http://www.w3.org/2000/svg" xmlns:xlink="http://www.w3.org/1999/xlink" width="20" height="20" viewBox="0 0 20 20"><defs><path id="duf9a" d="M454.463 284.917c-.358-.651-.947-1.218-1.768-1.7-.026.222-.068.45-.127.684-.058.234-.12.456-.185.664.534.378.895.768 1.084 1.172.189.404.283.879.283 1.426 0 .677-.163 1.266-.488 1.767-.326.502-.86.941-1.602 1.319l-.605.293.039.86c.026.572.065.956.117 1.151-.612-.442-1.038-.826-1.28-1.152l-.36-.488-.665.097c-.13.027-.322.04-.576.04h-.38c-.847 0-1.596-.101-2.247-.303a5.522 5.522 0 0 1-1.777-.928c.143-.013-.114-.02-.772-.02-.657 0-.999.014-1.025.04a6.428 6.428 0 0 0 2.422 1.806 7.683 7.683 0 0 0 1.592.489c.566.11 1.168.166 1.806.166h.371c.13 0 .254-.004.371-.01.118-.007.254-.017.41-.03.144.183.567.567 1.27 1.153.703.586 1.4.937 2.09 1.055H452.578a.397.397 0 0 0 .41-.41.321.321 0 0 0-.039-.157c-.13-.221-.273-.599-.43-1.133-.156-.534-.234-1.002-.234-1.406v-.01-.029c.925-.469 1.608-1.051 2.05-1.748.444-.697.665-1.5.665-2.412 0-.847-.179-1.595-.537-2.246zm-13.799 2.91c-.091.117-.31.316-.654.596-.345.28-.694.524-1.045.732.221-.599.345-1.012.37-1.24l.04-.342.059-.762-.684-.351c-.86-.443-1.49-1.075-1.895-1.895-.403-.82-.605-1.634-.605-2.441 0-.677.179-1.309.537-1.895.358-.586.853-1.097 1.484-1.533.632-.436 1.368-.781 2.208-1.035a9.233 9.233 0 0 1 2.685-.381c.95 0 1.843.127 2.676.38.833.255 1.556.6 2.168 1.036a5.236 5.236 0 0 1 1.455 1.533c.358.586.537 1.218.537 1.895 0 .742-.17 1.429-.508 2.06a5.162 5.162 0 0 1-1.396 1.64c-.593.463-1.296.821-2.11 1.075a8.844 8.844 0 0 1-2.646.381h-.371c-.248 0-.521-.02-.82-.059l-.684-.058zm5.781.224c.977-.306 1.823-.738 2.54-1.298a6.038 6.038 0 0 0 1.68-2.022c.403-.788.598-1.657.585-2.607 0-.847-.212-1.64-.635-2.383a6.323 6.323 0 0 0-1.728-1.934c-.73-.547-1.586-.98-2.569-1.298a10.16 10.16 0 0 0-3.154-.479c-1.133 0-2.194.16-3.184.479-.99.319-1.855.751-2.597 1.298a6.227 6.227 0 0 0-1.748 1.934 4.733 4.733 0 0 0-.635 2.383 6.659 6.659 0 0 0 .781 3.105c.26.482.593.925.996 1.328a5.55 5.55 0 0 0 1.407 1.016v.039c0 .456-.14.954-.42 1.494-.28.54-.498.94-.655 1.201h.02a.382.382 0 0 0-.03.078.41.41 0 0 0-.01.098c0 .13.043.241.128.332a.42.42 0 0 0 .4.127l.04-.01h.019a4.81 4.81 0 0 0 1.299-.43c.462-.22.901-.468 1.318-.742.417-.273.778-.533 1.084-.78.306-.248.505-.424.596-.528.182.026.341.042.478.049.137.006.277.01.42.01h.43c1.12 0 2.168-.154 3.144-.46z"/><linearGradient id="duf9b" x1="455" x2="435" y1="293.39" y2="285.25" gradientUnits="userSpaceOnUse"><stop offset="0" stop-color="#cbcbcb"/><stop offset="1" stop-color="#9b9b9b"/></linearGradient></defs><g><g transform="translate(-435 -275)"><g><use fill="url(#duf9b)" xlink:href="#duf9a"/></g></g></g></svg>