<svg xmlns="http://www.w3.org/2000/svg" xmlns:xlink="http://www.w3.org/1999/xlink" width="30" height="30" viewBox="0 0 30 30"><defs><path id="vpjxa" d="M205 362c0-8.284 6.716-15 15-15 8.284 0 15 6.716 15 15 0 8.284-6.716 15-15 15-8.284 0-15-6.716-15-15z"/><path id="vpjxd" d="M224.676 362.083a.457.457 0 0 1 0 .667l-6.932 5.884a.522.522 0 0 1-.345.119.57.57 0 0 1-.357-.12.397.397 0 0 1-.155-.333v-11.79c0-.128.051-.235.155-.322a.521.521 0 0 1 .702.012z"/><mask id="vpjxc" width="2" height="2" x="-1" y="-1"><path fill="#fff" d="M205 347h30v30h-30z"/><use xlink:href="#vpjxa"/></mask><filter id="vpjxb" width="78" height="85" x="181" y="323" filterUnits="userSpaceOnUse"><feOffset dy="7" in="SourceGraphic" result="FeOffset1195Out"/><feGaussianBlur in="FeOffset1195Out" result="FeGaussianBlur1196Out" stdDeviation="5.6 5.6"/></filter></defs><g><g transform="translate(-205 -347)"><g><g filter="url(#vpjxb)"><use fill="none" stroke-opacity=".1" stroke-width="0" mask="url(&quot;#vpjxc&quot;)" xlink:href="#vpjxa"/><use fill-opacity=".1" xlink:href="#vpjxa"/></g><use fill="#fff" xlink:href="#vpjxa"/></g><g><use fill="#c9db34" xlink:href="#vpjxd"/></g></g></g></svg>