<svg xmlns="http://www.w3.org/2000/svg" xmlns:xlink="http://www.w3.org/1999/xlink" width="24" height="24" viewBox="0 0 24 24"><defs><path id="onvwa" d="M1187.94 547.96a.732.732 0 0 1-.069.08 5.04 5.04 0 0 0-.41-.86 4.555 4.555 0 0 0-.723-.918 5.368 5.368 0 0 0-.918-.752 5.755 5.755 0 0 0-.82-.44l.098-.097c.026-.04.185-.163.478-.371a1.756 1.756 0 0 1 1.045-.313c.234 0 .466.052.693.156.228.104.446.26.655.47.26.246.459.494.595.741.137.248.206.489.206.723 0 .234-.066.482-.196.742s-.325.52-.586.781a.57.57 0 0 0-.049.059zm-14.42 9.855c.327.163.673.428 1.038.793.275.274.483.555.627.842.144.287.248.529.313.725-.43.143-1.05.352-1.86.626s-1.52.51-2.134.705c.183-.587.401-1.28.656-2.075.254-.797.453-1.436.597-1.92.183.04.437.141.764.304zm11.235-11.456c.338.157.703.424 1.094.801.391.39.655.778.792 1.162.137.384.211.629.224.733a466.62 466.62 0 0 0-2.335 2.304l-2.922 2.9c-1.004.997-1.965 1.947-2.883 2.852-.92.905-1.652 1.631-2.2 2.178a6.235 6.235 0 0 0-.42-.771 5.29 5.29 0 0 0-.654-.83 5.307 5.307 0 0 0-.968-.782 5.886 5.886 0 0 0-.87-.449l2.209-2.207c.925-.924 1.893-1.895 2.903-2.91 1.01-1.016 1.99-1.999 2.941-2.95a318.72 318.72 0 0 1 2.346-2.324c.156.04.404.137.743.293zm3.028-3.105a2.77 2.77 0 0 0-1.162-.254c-.625 0-1.152.146-1.582.44-.43.292-.71.504-.84.634-.09.078-.784.768-2.08 2.07a2400.273 2400.273 0 0 1-4.228 4.239l-6.055 6.054a.6.6 0 0 0-.098.127 2.998 2.998 0 0 0-.078.147c-.065.26-.185.687-.361 1.28-.176.592-.358 1.2-.547 1.825l-.498 1.65c-.143.476-.221.72-.234.733a.8.8 0 0 0 0 .352.527.527 0 0 0 .175.293.485.485 0 0 0 .196.146.605.605 0 0 0 .341.04.349.349 0 0 0 .088-.03c.013 0 .267-.081.762-.244.495-.163 1.051-.342 1.67-.537l1.807-.576c.586-.19.97-.31 1.152-.362a.575.575 0 0 0 .273-.156l2.032-2.012 4.072-4.033 4.13-4.092a149.47 149.47 0 0 0 2.188-2.187c.378-.39.664-.791.86-1.201.195-.41.286-.83.273-1.26a2.916 2.916 0 0 0-.312-1.201c-.196-.397-.489-.778-.88-1.143a3.846 3.846 0 0 0-1.064-.742z"/></defs><g><g transform="translate(-1167 -541)"><g><use fill="#fff" xlink:href="#onvwa"/></g></g></g></svg>