<svg xmlns="http://www.w3.org/2000/svg" xmlns:xlink="http://www.w3.org/1999/xlink" width="23" height="23" viewBox="0 0 23 23"><defs><path id="ts3ea" d="M1233.862 555.957a.813.813 0 0 1 .248.596v5.537c0 .414-.149.774-.447 1.08-.298.307-.662.46-1.093.46h-19.17c-.43 0-.795-.149-1.093-.447a1.486 1.486 0 0 1-.447-1.093v-5.537c0-.232.083-.435.248-.609a.808.808 0 0 1 .609-.26c.24 0 .443.086.608.26a.854.854 0 0 1 .248.609v4.842a.505.505 0 0 0 .522.522h17.78a.505.505 0 0 0 .522-.522v-4.842c0-.232.082-.435.248-.609a.808.808 0 0 1 .608-.26.79.79 0 0 1 .609.273zm-11.448 3.302l-3.874-3.873a.813.813 0 0 1-.248-.596c0-.232.082-.435.248-.609a.794.794 0 0 1 .596-.26c.232 0 .439.082.62.248l2.41 2.409v-14.329c0-.248.082-.455.248-.62a.813.813 0 0 1 .596-.249c.232 0 .434.083.608.248.174.166.261.373.261.621v14.329l2.409-2.384a.778.778 0 0 1 .596-.274c.231 0 .434.087.608.261.174.174.26.377.26.609 0 .231-.09.43-.272.596l-3.874 3.873a.813.813 0 0 1-.596.249.813.813 0 0 1-.596-.249z"/></defs><g><g transform="translate(-1211 -541)"><use fill="#fff" xlink:href="#ts3ea"/></g></g></svg>