<svg xmlns="http://www.w3.org/2000/svg" xmlns:xlink="http://www.w3.org/1999/xlink" width="26" height="26" viewBox="0 0 26 26"><defs><path id="kh2ua" d="M1130.287 555.278c-.84 0-1.523-.682-1.523-1.521a1.524 1.524 0 0 1 3.047 0c0 .839-.683 1.52-1.524 1.52zm-9.14 0c-.84 0-1.524-.682-1.524-1.521a1.524 1.524 0 0 1 3.047 0c0 .839-.683 1.52-1.523 1.52zm9.14-4.568a3.05 3.05 0 0 0-3.046 3.047c0 .555.15 1.075.41 1.523h-3.867c.26-.448.41-.968.41-1.523a3.05 3.05 0 0 0-3.047-3.047 3.05 3.05 0 0 0-3.047 3.047 3.05 3.05 0 0 0 3.047 3.047h9.14a3.05 3.05 0 0 0 3.047-3.047 3.05 3.05 0 0 0-3.047-3.047z"/><path id="kh2ub" d="M1139.477 553.008a2.289 2.289 0 0 1-2.286 2.287h-.812v-5.336a3.814 3.814 0 0 0-3.809-3.811h-9.902v-2.338a2.289 2.289 0 0 1 2.285-2.287h12.238a2.289 2.289 0 0 1 2.286 2.287zm-4.612 4.556a2.288 2.288 0 0 1-2.286 2.284h-7.621a.762.762 0 0 0-.46.155l-4.875 3.692v-3.086a.762.762 0 0 0-.762-.761c-1.267 0-2.338-1.046-2.338-2.284v-7.612c0-1.238 1.07-2.284 2.338-2.284h13.718a2.288 2.288 0 0 1 2.286 2.284zm2.326-17.564h-12.238a3.813 3.813 0 0 0-3.808 3.809v2.336h-2.286c-2.105 0-3.859 1.702-3.859 3.808v7.617c0 1.87 1.376 3.39 3.098 3.734v3.934a.762.762 0 0 0 1.222.607l5.89-4.466h7.36c2.1 0 3.809-1.709 3.809-3.809v-.761h.812c2.1 0 3.809-1.709 3.809-3.809v-9.191c0-2.1-1.709-3.809-3.809-3.809z"/></defs><g><g transform="translate(-1115 -540)"><use fill="#fff" xlink:href="#kh2ua"/></g><g transform="translate(-1115 -540)"><use fill="#fff" xlink:href="#kh2ub"/></g></g></svg>