<svg xmlns="http://www.w3.org/2000/svg" xmlns:xlink="http://www.w3.org/1999/xlink" width="24" height="24" viewBox="0 0 24 24"><defs><path id="7q4ba" d="M1052.355 360.9c-.43-.781-1.136-1.46-2.12-2.039a6.53 6.53 0 0 1-.153.82c-.07.282-.144.547-.223.797.641.453 1.075.922 1.301 1.406.227.485.34 1.055.34 1.711 0 .813-.195 1.52-.586 2.121-.39.602-1.031 1.13-1.922 1.583l-.726.351.047 1.031c.03.688.078 1.149.14 1.383-.734-.531-1.246-.992-1.535-1.383l-.434-.586-.796.118a3.795 3.795 0 0 1-.692.046h-.457c-1.016 0-1.914-.12-2.695-.363a6.626 6.626 0 0 1-2.133-1.113c.172-.016-.137-.024-.926-.024s-1.199.016-1.23.047a7.713 7.713 0 0 0 2.906 2.168 9.22 9.22 0 0 0 1.91.586c.68.133 1.402.2 2.168.2h.445c.157 0 .305-.004.446-.012.14-.008.304-.02.492-.035.172.218.68.68 1.523 1.382.844.703 1.68 1.125 2.508 1.266h.14a.477.477 0 0 0 .493-.492.385.385 0 0 0-.047-.188c-.156-.265-.328-.718-.516-1.36-.187-.64-.28-1.202-.28-1.687v-.011-.035c1.109-.563 1.929-1.262 2.46-2.098.531-.836.797-1.8.797-2.895 0-1.015-.215-1.914-.645-2.695zm-16.558 3.492c-.11.14-.371.38-.785.715-.414.336-.832.629-1.254.879.265-.719.414-1.215.445-1.488l.047-.41.07-.915-.82-.421c-1.031-.532-1.79-1.29-2.273-2.274-.485-.984-.727-1.96-.727-2.93 0-.812.215-1.57.645-2.273.43-.703 1.023-1.316 1.78-1.84.759-.523 1.641-.937 2.65-1.242a11.08 11.08 0 0 1 3.222-.457c1.14 0 2.21.152 3.21.457 1 .305 1.868.719 2.602 1.242.735.524 1.317 1.137 1.746 1.84.43.703.645 1.461.645 2.274 0 .89-.203 1.714-.61 2.472a6.194 6.194 0 0 1-1.675 1.969c-.711.555-1.555.984-2.531 1.289-.977.305-2.036.457-3.176.457h-.446c-.296 0-.625-.023-.984-.07l-.82-.07zm6.937.27c1.172-.367 2.188-.887 3.047-1.559a7.245 7.245 0 0 0 2.016-2.426c.484-.945.719-1.988.703-3.128a5.68 5.68 0 0 0-.762-2.86 7.588 7.588 0 0 0-2.074-2.32c-.875-.656-1.902-1.176-3.082-1.559s-2.441-.574-3.785-.574c-1.36 0-2.633.191-3.82.574-1.188.383-2.227.903-3.118 1.559-.89.656-1.59 1.43-2.097 2.32a5.68 5.68 0 0 0-.762 2.86c0 .625.078 1.257.234 1.898.157.64.391 1.25.704 1.828.312.578.71 1.11 1.195 1.594a6.66 6.66 0 0 0 1.687 1.219v.046c0 .547-.168 1.145-.504 1.793a28.77 28.77 0 0 1-.785 1.442h.024a.458.458 0 0 0-.035.094.493.493 0 0 0-.012.117c0 .156.05.289.152.398a.505.505 0 0 0 .48.153l.048-.012h.023c.484-.078 1.004-.25 1.559-.516a13.53 13.53 0 0 0 1.582-.89c.5-.329.933-.641 1.3-.938.368-.297.606-.508.715-.633.219.032.41.051.574.059.164.008.332.012.504.012h.516c1.344 0 2.602-.184 3.773-.551z"/></defs><g><g transform="translate(-1029 -349)"><g><use fill="#fff" xlink:href="#7q4ba"/></g></g></g></svg>