<svg xmlns="http://www.w3.org/2000/svg" xmlns:xlink="http://www.w3.org/1999/xlink" width="24" height="24" viewBox="0 0 24 24"><defs><path id="8f5va" d="M1038.54 453.432c-.344-.48-.517-1.075-.517-1.784 0-1.437.835-2.417 2.505-2.94v6.382c-.98-.625-1.642-1.178-1.987-1.658zm3.36 5.325c.998.69 1.65 1.248 1.959 1.672.308.425.462.968.462 1.63 0 1.522-.807 2.571-2.421 3.15zm0 10.412v-1.721c1.492-.317 2.673-.996 3.54-2.036.868-1.04 1.302-2.298 1.302-3.772 0-1.036-.261-1.903-.784-2.603-.522-.7-1.497-1.484-2.925-2.351-.252-.15-.63-.378-1.133-.686v-7.375c1.203.093 2.7.527 4.492 1.301v-2.253c-1.633-.625-3.13-.938-4.492-.938V445h-1.372v1.735c-1.483.112-2.675.623-3.576 1.533-.9.91-1.35 2.055-1.35 3.436 0 1.231.347 2.29 1.042 3.176.695.887 1.99 1.908 3.884 3.065v7.432c-1.577 0-3.42-.49-5.528-1.47v2.38c2.043.774 3.886 1.16 5.528 1.16v1.722z"/></defs><g><g transform="translate(-1029 -445)"><g><use fill="#fff" xlink:href="#8f5va"/></g></g></g></svg>