<svg xmlns="http://www.w3.org/2000/svg" xmlns:xlink="http://www.w3.org/1999/xlink" width="24" height="24" viewBox="0 0 24 24"><defs><path id="iu6aa" d="M1047.223 549.472a.72.72 0 0 0-.223.527v3.115c0 1.109-.102 2.08-.305 2.916-.203.835-.504 1.526-.902 2.073a3.733 3.733 0 0 1-1.512 1.23c-.61.272-1.328.409-2.156.409h-2.227c-1.062 0-1.918-.203-2.566-.609a4.15 4.15 0 0 1-1.488-1.569 6.327 6.327 0 0 1-.68-2.143 16.782 16.782 0 0 1-.164-2.307V550a.72.72 0 0 0-.223-.527.721.721 0 0 0-.527-.222.721.721 0 0 0-.527.222.72.72 0 0 0-.223.527v3.115c0 1.296.133 2.448.398 3.455.266 1.007.668 1.858 1.207 2.552a5.21 5.21 0 0 0 2.004 1.581c.797.36 1.727.539 2.79.539h.351v2.248h-3.75a.721.721 0 0 0-.527.223.72.72 0 0 0-.223.527.72.72 0 0 0 .223.527.721.721 0 0 0 .527.222h9a.721.721 0 0 0 .527-.222.72.72 0 0 0 .223-.527.72.72 0 0 0-.223-.527.721.721 0 0 0-.527-.223h-3.75v-2.248h.375c.734 0 1.477-.11 2.227-.328.75-.219 1.433-.625 2.05-1.218.618-.593 1.121-1.417 1.512-2.47.39-1.055.586-2.425.586-4.11v-3.116a.72.72 0 0 0-.223-.527.721.721 0 0 0-.527-.222.721.721 0 0 0-.527.222zm-7.817-6.269c.438-.469.961-.703 1.57-.703h.165c.609 0 1.113.23 1.511.691.399.461.598 1.036.598 1.723v8.93c0 .64-.191 1.16-.574 1.558-.383.399-.895.598-1.535.598h-.164c-.657 0-1.192-.2-1.606-.598-.414-.398-.621-.918-.621-1.558v-8.93c0-.672.219-1.242.656-1.71zm1.735 14.297c1.047 0 1.91-.344 2.59-1.031.68-.688 1.019-1.563 1.019-2.625v-8.93c0-1.094-.348-2.02-1.043-2.777-.695-.758-1.55-1.137-2.566-1.137h-.164c-1.032 0-1.91.383-2.637 1.148-.727.766-1.09 1.688-1.09 2.766v8.93c0 1.047.355 1.918 1.066 2.613.711.695 1.598 1.043 2.66 1.043z"/></defs><g><g transform="translate(-1029 -541)"><g><use fill="#fff" xlink:href="#iu6aa"/></g></g></g></svg>