<svg xmlns="http://www.w3.org/2000/svg" xmlns:xlink="http://www.w3.org/1999/xlink" width="24" height="24" viewBox="0 0 24 24"><defs><path id="joida" d="M1040.1 657.27v-.14c-.031-.516-.324-1.009-.879-1.477-.555-.47-1.262-.703-2.121-.703-.89 0-1.617.242-2.18.726-.562.484-.843.992-.843 1.524 0 .53.28 1.039.843 1.523s1.29.727 2.18.727c.86 0 1.566-.235 2.121-.704.555-.468.848-.96.879-1.476zm8.695-12.703c.14.14.211.312.211.515s-.07.383-.21.54a.782.782 0 0 1-.54.21.701.701 0 0 1-.515-.21l-6.141-6.141V657.2c0 1.03-.438 1.914-1.313 2.648-.875.734-1.937 1.102-3.187 1.102-1.234 0-2.293-.368-3.176-1.102-.883-.734-1.324-1.617-1.324-2.648 0-1.032.441-1.915 1.324-2.649s1.942-1.101 3.176-1.101c.578 0 1.121.082 1.629.246.508.164.965.394 1.371.691v-16.594a.721.721 0 0 1 .492-.703.71.71 0 0 1 .457-.082c.164.024.301.098.41.223z"/></defs><g><g transform="translate(-1029 -637)"><g><use fill="#fff" xlink:href="#joida"/></g></g></g></svg>