<svg xmlns="http://www.w3.org/2000/svg" xmlns:xlink="http://www.w3.org/1999/xlink" width="24" height="24" viewBox="0 0 24 24"><defs><path id="59f9a" d="M659.369 36.336a.78.78 0 0 0-.554-.233.769.769 0 0 0-.564.233.769.769 0 0 0-.233.564v5.425c0 .222.078.41.233.565a.769.769 0 0 0 .564.232c.222 0 .41-.077.565-.232a.769.769 0 0 0 .233-.565V36.9a.751.751 0 0 0-.244-.564zm4.262-5.669a.769.769 0 0 0-.564-.232.769.769 0 0 0-.565.232.769.769 0 0 0-.232.565v11.093c0 .222.077.41.232.565a.769.769 0 0 0 .565.232c.221 0 .41-.077.564-.232a.769.769 0 0 0 .233-.565V31.232a.769.769 0 0 0-.233-.565zm-8.48 2.879a.769.769 0 0 0-.565-.233.769.769 0 0 0-.564.233.769.769 0 0 0-.233.565v8.214c0 .222.078.41.233.565a.769.769 0 0 0 .564.232c.222 0 .41-.077.565-.232a.769.769 0 0 0 .232-.565v-8.214a.769.769 0 0 0-.232-.565zm-4.23-4.274a.769.769 0 0 0-.564-.232.769.769 0 0 0-.565.232.769.769 0 0 0-.232.565v15.411c0 .222.078.41.232.565a.769.769 0 0 0 .565.232c.222 0 .41-.077.565-.232a.769.769 0 0 0 .232-.565v-15.41a.769.769 0 0 0-.232-.566z"/><path id="59f9c" d="M650.357 44.45h15.367c.221 0 .41.077.564.232a.769.769 0 0 1 .233.565c0 .222-.078.41-.233.565a.769.769 0 0 1-.564.232h-15.367a.769.769 0 0 1-.565-.232.769.769 0 0 1-.232-.565c0-.221.078-.41.232-.565a.769.769 0 0 1 .565-.232z"/><linearGradient id="59f9b" x1="663.86" x2="649.56" y1="45.05" y2="37.55" gradientUnits="userSpaceOnUse"><stop offset="0" stop-color="#cbcbcb"/><stop offset="1" stop-color="#9b9b9b"/></linearGradient><linearGradient id="59f9d" x1="666.52" x2="649.56" y1="45.95" y2="45.25" gradientUnits="userSpaceOnUse"><stop offset="0" stop-color="#cbcbcb"/><stop offset="1" stop-color="#9b9b9b"/></linearGradient></defs><g><g transform="translate(-646 -25)"><g><use fill="url(#59f9b)" xlink:href="#59f9a"/></g><g><use fill="url(#59f9d)" xlink:href="#59f9c"/></g></g></g></svg>