<svg xmlns="http://www.w3.org/2000/svg" xmlns:xlink="http://www.w3.org/1999/xlink" width="12" height="8" viewBox="0 0 12 8"><defs><path id="j41fa" d="M1295.486 34.62a.645.645 0 0 1-.143.401l-4.882 6.057a.584.584 0 0 1-.487.243.584.584 0 0 1-.487-.243l-4.854-6.043a.606.606 0 0 1-.129-.458.59.59 0 0 1 .23-.415.606.606 0 0 1 .458-.129.59.59 0 0 1 .415.23l4.367 5.426 4.396-5.455a.59.59 0 0 1 .415-.23.606.606 0 0 1 .458.13.584.584 0 0 1 .243.486z"/><linearGradient id="j41fb" x1="1295.49" x2="1284.5" y1="40.89" y2="37.66" gradientUnits="userSpaceOnUse"><stop offset="0" stop-color="#cbcbcb"/><stop offset="1" stop-color="#9b9b9b"/></linearGradient></defs><g><g transform="translate(-1284 -34)"><use fill="url(#j41fb)" xlink:href="#j41fa"/></g></g></svg>