<svg xmlns="http://www.w3.org/2000/svg" xmlns:xlink="http://www.w3.org/1999/xlink" width="24" height="24" viewBox="0 0 24 24"><defs><path id="1jbka" d="M453.406 33.594v-.938h.938v.938zm-13.281 2.5a.452.452 0 0 1-.332-.137.452.452 0 0 1-.137-.332c0-.13.046-.24.137-.332a.452.452 0 0 1 .332-.137c.13 0 .24.046.332.137a.452.452 0 0 1 .137.332c0 .13-.046.24-.137.332a.452.452 0 0 1-.332.137zM452 35h1.094v2.695h-5.39V31.25h1.171L447 28.75l-1.875 2.5h1.172v8.594h-5.39v-2.52a1.77 1.77 0 0 0 .976-1.074 1.77 1.77 0 0 0 .117-.625c0-.52-.182-.964-.547-1.328a1.808 1.808 0 0 0-1.328-.547c-.52 0-.964.182-1.328.547a1.808 1.808 0 0 0-.547 1.328c0 .404.117.768.352 1.094.234.325.533.547.898.664v2.46c0 .391.137.723.41.997.274.273.606.41.996.41h5.39v1.387a1.862 1.862 0 0 0-.849.683 1.818 1.818 0 0 0-.322 1.055c0 .52.182.964.547 1.328.364.365.807.547 1.328.547.52 0 .964-.182 1.328-.547.365-.364.547-.807.547-1.328a1.862 1.862 0 0 0-1.172-1.738v-3.535h5.39c.391 0 .723-.137.997-.41.273-.274.41-.606.41-.997V35h1.25v-3.75H452z"/><linearGradient id="1jbkb" x1="455.75" x2="438.25" y1="45.22" y2="37.5" gradientUnits="userSpaceOnUse"><stop offset="0" stop-color="#cbcbcb"/><stop offset="1" stop-color="#9b9b9b"/></linearGradient></defs><g><g transform="translate(-435 -25)"><g><use fill="url(#1jbkb)" xlink:href="#1jbka"/></g></g></g></svg>