<svg xmlns="http://www.w3.org/2000/svg" xmlns:xlink="http://www.w3.org/1999/xlink" width="107" height="24" viewBox="0 0 107 24"><defs><path id="7gaya" d="M172.395 26.736h5.78c1.67 0 3.612-.057 3.612-2.73 0-2.588-1.582-2.814-3.111-2.814h-6.28zM167 17.58h13.344c5.641 0 7.006 3.362 7.006 6.03 0 4.227-2.226 6.728-6.588 6.728h-8.367v7.08H167z"/><path id="7gayb" d="M240.945 23.325c-.333-2.583-2.809-2.87-4.977-2.87-2.17 0-3.69 1-3.69 2.337 0 1.054.89 1.64 2.28 1.861l6.755 1.083c3.612.586 6.367 1.947 6.367 5.563 0 3.69-2.505 6.67-10.314 6.67-4.838 0-11.119-.61-11.176-6.81h6.06c.057 2.723 2.779 3.194 5.116 3.194 2.529 0 4.25-.75 4.25-2.46 0-1.529-1.229-1.947-3.36-2.279l-4.92-.75c-3.448-.53-6.785-1.558-6.785-5.617 0-4.42 3.616-6.227 9.839-6.227 4.1 0 10.146.697 10.507 6.31z"/><path id="7gayc" d="M261.18 21.36h-7.38v-3.78h20.13v3.78h-7.38v16.058h-5.37z"/><path id="7gayd" d="M208.684 37.827c-.747.153-1.505.248-2.267.282-.48.041-.496 0-.742-.64a14.94 14.94 0 0 0 3.534-.524 9.364 9.364 0 0 0 6.559-9.47c-.283-5.108-4.838-9.154-10.192-8.753a9.392 9.392 0 0 0-8.683 9.397c0 1.016 0 2.05-.078 3.054a5.219 5.219 0 0 1-.635-2.595 10.052 10.052 0 0 1 8.2-10.389 10.159 10.159 0 0 1 10.847 4.994 10.028 10.028 0 0 1-6.543 14.644zm2.32-20.433c-5.876-2.58-12.734.032-15.406 5.867-2.41 5.251-.197 11.237 3.066 13.389v-6.022c0-1.407-.119-2.83.197-4.21.927-4.063 4.793-6.892 9.462-5.695a7.412 7.412 0 0 1 5.592 8.412 7.552 7.552 0 0 1-8.61 6.396c-.36-.054-.729-.082-1.143-.127-.127 1.32 0 2.607-.057 3.952a11.565 11.565 0 0 0 6.903-21.962z"/><path id="7gaye" d="M201.937 27.348a8.854 8.854 0 0 0-.098 1.316v7.232a2.75 2.75 0 0 1-.082.988 1.155 1.155 0 0 1-.741-.381v-3.395c0-1.877-.103-3.759.032-5.637.189-2.525 2.458-4.562 4.989-4.694a5.326 5.326 0 0 1 5.55 4.588c.491 3.69-2.867 6.379-5.796 5.834a.611.611 0 0 1-.045-.706c.164-.143.348-.094.52-.094a4.3 4.3 0 0 0 3.863-2.205 4.222 4.222 0 0 0-.373-4.863 4.266 4.266 0 0 0-4.505-1.541 4.225 4.225 0 0 0-3.314 3.558zm1.567.75a2.833 2.833 0 0 1 3.28-2.812 2.894 2.894 0 0 1 2.373 2.87 2.87 2.87 0 0 1-2.603 2.644c-.935.078-1.64-.328-2.46-.82v4.56a6.338 6.338 0 0 0 3.723.196c2.972-.75 4.858-2.616 5.33-5.715a6.457 6.457 0 0 0-2.337-6.199 6.97 6.97 0 0 0-9.294.296c-1.185 1.14-2.005 2.504-2.01 4.235 0 2.381-.024 4.76-.036 7.137v2.976a10.25 10.25 0 0 0 3.813 1.771.922.922 0 0 0 .114-.627c.02-3.517.128-7.014.107-10.511z"/></defs><g><g transform="translate(-167 -16)"><g><use fill="#555" xlink:href="#7gaya"/></g><g><use fill="#555" xlink:href="#7gayb"/></g><g><use fill="#555" xlink:href="#7gayc"/></g><g><use fill="#c9db34" xlink:href="#7gayd"/></g><g><use fill="#c9db34" xlink:href="#7gaye"/></g></g></g></svg>