<svg xmlns="http://www.w3.org/2000/svg" xmlns:xlink="http://www.w3.org/1999/xlink" width="24" height="24" viewBox="0 0 24 24"><defs><path id="nnlva" d="M794.56 39.06a2.133 2.133 0 0 1-1.564.652c-.608 0-1.13-.217-1.564-.652a2.133 2.133 0 0 1-.652-1.564c0-.608.218-1.13.652-1.564.435-.434.96-.652 1.575-.652a2.11 2.11 0 0 1 1.564.652c.428.435.641.956.641 1.564 0 .609-.217 1.13-.652 1.564zm-1.564-5.344c-1.043 0-1.933.37-2.672 1.108a3.641 3.641 0 0 0-1.108 2.672c0 1.043.37 1.934 1.108 2.672a3.642 3.642 0 0 0 2.672 1.108c1.043 0 1.934-.369 2.672-1.108a3.642 3.642 0 0 0 1.108-2.672c0-1.043-.369-1.933-1.108-2.672a3.642 3.642 0 0 0-2.672-1.108zm8.342 3.785c0 .276-.014.58-.043.913l-.782.24-.674.238-.217.696a6.365 6.365 0 0 1-.456 1.13l-.348.63.696 1.37a9.427 9.427 0 0 1-.609.674v.022a5.7 5.7 0 0 1-.695.587l-1.347-.674-.63.326a8.293 8.293 0 0 1-1.173.478l-.673.217-.218.674-.26.761a6.44 6.44 0 0 1-1.825 0l-.24-.76-.238-.675-.674-.217c-.405-.13-.789-.29-1.15-.478l-.63-.326-.653.326-.717.348a5.433 5.433 0 0 1-.673-.609 5.434 5.434 0 0 1-.608-.674l.673-1.348-.326-.63a6.95 6.95 0 0 1-.478-1.152l-.217-.696-1.434-.478a6.451 6.451 0 0 1 0-1.826l1.434-.478.217-.674c.116-.391.276-.775.478-1.152l.326-.652-.326-.63-.347-.718a7.668 7.668 0 0 1 1.281-1.282l1.347.674.652-.326a5.362 5.362 0 0 1 1.151-.479l.674-.217.217-.674.26-.782c.334-.03.638-.044.913-.044.29 0 .594.015.913.044l.478 1.456.673.196c.406.13.797.29 1.173.478l.63.348 1.347-.696a9.24 9.24 0 0 1 1.304 1.304l-.696 1.348.326.63c.203.377.37.761.5 1.152l.195.696.674.217.782.261c.043.32.058.616.043.891zm1.347-2.09l-1.586-.543a9.606 9.606 0 0 0-.521-1.26l.739-1.5-.305-.412a9.846 9.846 0 0 0-2.215-2.238l-.435-.304-1.499.76a9.606 9.606 0 0 0-1.26-.52l-.521-1.587-.522-.087a10.339 10.339 0 0 0-1.564-.13c-.478 0-1 .043-1.564.13l-.521.087-.543 1.586a8.577 8.577 0 0 0-1.239.521l-1.499-.76-.434.326a10.05 10.05 0 0 0-2.216 2.216l-.304.434.738 1.5c-.202.405-.376.818-.52 1.238l-1.587.543-.087.521c-.087.565-.13 1.086-.13 1.564s.043 1 .13 1.564l.087.522 1.586.543c.145.434.319.847.521 1.238l-.738 1.5.304.434c.319.434.659.832 1.021 1.194.333.334.731.674 1.195 1.021l.434.305 1.5-.739c.405.203.818.377 1.238.521l.543 1.586.521.087c.565.087 1.086.13 1.564.13s1-.043 1.564-.13l.522-.087.543-1.586c.42-.144.833-.318 1.238-.521l1.5.76.434-.326a8.606 8.606 0 0 0 1.194-1.02 8.606 8.606 0 0 0 1.021-1.195l.305-.435-.739-1.499c.203-.405.377-.825.521-1.26l1.586-.521.087-.522c.087-.564.13-1.086.13-1.564s-.043-1-.13-1.564z"/><linearGradient id="nnlvb" x1="802.9" x2="783.09" y1="46.24" y2="37.5" gradientUnits="userSpaceOnUse"><stop offset="0" stop-color="#cbcbcb"/><stop offset="1" stop-color="#9b9b9b"/></linearGradient></defs><g><g transform="translate(-781 -25)"><g><use fill="url(#nnlvb)" xlink:href="#nnlva"/></g></g></g></svg>