<svg xmlns="http://www.w3.org/2000/svg" xmlns:xlink="http://www.w3.org/1999/xlink" width="24" height="24" viewBox="0 0 24 24"><defs><path id="qvi0a" d="M338.286 46.676c.193 0 .36.066.502.197a.614.614 0 0 1 0 .93.714.714 0 0 1-.502.197h-8.572a.714.714 0 0 1-.502-.196.614.614 0 0 1 0-.931.714.714 0 0 1 .502-.197h3.584a52.388 52.388 0 0 1 .018-2.934c.02-.495.044-.742.071-.742h1.216c.027 0 .051.247.071.742a52.388 52.388 0 0 1 .018 2.934z"/><path id="qvi0c" d="M324 34.401l1.289-.105c.39 4.22 4.16 7.487 8.696 7.488V43c-5.21-.002-9.538-3.752-9.985-8.599zM333.988 43v-1.216c4.654 0 8.485-3.433 8.72-7.784l1.292.062c-.27 4.997-4.668 8.938-10.012 8.938z"/><path id="qvi0e" d="M335.791 39.356a9.09 9.09 0 0 1-1.413.176c-.299.026-.309 0-.462-.398a9.312 9.312 0 0 0 2.203-.327 5.837 5.837 0 0 0 4.088-5.903c-.176-3.185-3.015-5.707-6.353-5.456a5.855 5.855 0 0 0-5.412 5.857c0 .633 0 1.277-.049 1.904a3.253 3.253 0 0 1-.396-1.618 6.266 6.266 0 0 1 5.111-6.476c2.69-.536 5.42.72 6.762 3.113a6.25 6.25 0 0 1-4.079 9.128zm1.447-12.736a7.324 7.324 0 0 0-9.604 3.657c-1.502 3.273-.122 7.004 1.912 8.346v-3.754c0-.877-.074-1.764.123-2.625.577-2.532 2.987-4.296 5.898-3.55a4.62 4.62 0 0 1 3.485 5.244 4.707 4.707 0 0 1-5.366 3.987c-.225-.033-.455-.051-.713-.08-.08.824 0 1.626-.036 2.464a7.209 7.209 0 0 0 4.303-13.69z"/><path id="qvi0g" d="M331.588 32.829c-.04.271-.06.546-.06.82v4.508c.02.207.002.415-.052.616a.72.72 0 0 1-.463-.238V36.42c0-1.17-.063-2.343.02-3.514.118-1.574 1.534-2.844 3.113-2.926a3.322 3.322 0 0 1 3.463 2.86c.307 2.3-1.789 3.976-3.616 3.636a.38.38 0 0 1-.028-.44c.102-.089.217-.058.325-.058a2.683 2.683 0 0 0 2.41-1.375 2.63 2.63 0 0 0-.233-3.03 2.663 2.663 0 0 0-2.811-.961 2.635 2.635 0 0 0-2.068 2.218zm.977.467a1.766 1.766 0 0 1 2.044-1.753 1.804 1.804 0 0 1 1.48 1.79 1.789 1.789 0 0 1-1.623 1.648c-.583.048-1.022-.205-1.533-.512v2.842a3.95 3.95 0 0 0 2.32.123c1.853-.468 3.028-1.63 3.322-3.563a4.025 4.025 0 0 0-1.457-3.863 4.344 4.344 0 0 0-5.793.184c-.738.71-1.25 1.561-1.252 2.64 0 1.484-.015 2.966-.023 4.448v1.856a6.389 6.389 0 0 0 2.377 1.104.575.575 0 0 0 .071-.391c.013-2.193.08-4.373.067-6.553z"/><linearGradient id="qvi0b" x1="339" x2="329" y1="47.71" y2="45.5" gradientUnits="userSpaceOnUse"><stop offset="0" stop-color="#cbcbcb"/><stop offset="1" stop-color="#9b9b9b"/></linearGradient><linearGradient id="qvi0d" x1="344" x2="324" y1="42.47" y2="38.5" gradientUnits="userSpaceOnUse"><stop offset="0" stop-color="#cbcbcb"/><stop offset="1" stop-color="#9b9b9b"/></linearGradient><linearGradient id="qvi0f" x1="341.63" x2="327" y1="39.62" y2="33.23" gradientUnits="userSpaceOnUse"><stop offset="0" stop-color="#cbcbcb"/><stop offset="1" stop-color="#9b9b9b"/></linearGradient><linearGradient id="qvi0h" x1="338.64" x2="330.05" y1="39.58" y2="34.62" gradientUnits="userSpaceOnUse"><stop offset="0" stop-color="#cbcbcb"/><stop offset="1" stop-color="#9b9b9b"/></linearGradient></defs><g><g transform="translate(-322 -25)"><g><g><use fill="url(#qvi0b)" xlink:href="#qvi0a"/></g><g><use fill="url(#qvi0d)" xlink:href="#qvi0c"/></g><g><g><use fill="url(#qvi0f)" xlink:href="#qvi0e"/></g><g><use fill="url(#qvi0h)" xlink:href="#qvi0g"/></g></g></g></g></g></svg>