<svg xmlns="http://www.w3.org/2000/svg" viewBox="0 0 235.24 241.94"><defs><style>.a{fill:#ccc;}</style></defs><title>rewind-arrow</title><path class="a" d="M213.3,655.6a121.07,121.07,0,0,0,171.1,0c47.3-47.2,47.2-123.8,0-171.1s-123.8-47.2-171.1,0l-28.7-29.1v82h82l-29.1-28.7a86.83,86.83,0,1,1,0,122.8Z" transform="translate(-184.6 -449.06)"/><path class="a" d="M302.42,544.13l-3.27,18.52,0.24,0.23a20.57,20.57,0,0,1,7.22-4.83,27,27,0,0,1,19.45.76,23.47,23.47,0,0,1,7.86,5.94,25.91,25.91,0,0,1,4.9,8.8,33.89,33.89,0,0,1,1.69,10.77,28.11,28.11,0,0,1-2.45,11.7,29.8,29.8,0,0,1-6.58,9.37,29.21,29.21,0,0,1-9.61,6.11,29.92,29.92,0,0,1-11.65,2A40.57,40.57,0,0,1,298.86,612a28.33,28.33,0,0,1-9.61-4.83,24.28,24.28,0,0,1-6.7-8.09,25.12,25.12,0,0,1-2.62-11.24h16.54a13.52,13.52,0,0,0,4.19,8.91,13.06,13.06,0,0,0,9.2,3.32,12.69,12.69,0,0,0,5.88-1.34,14,14,0,0,0,4.43-3.49,15.7,15.7,0,0,0,2.8-5,17.84,17.84,0,0,0,1-5.88,18.66,18.66,0,0,0-.93-5.94,13.86,13.86,0,0,0-2.79-4.9,13.19,13.19,0,0,0-4.43-3.26,14.31,14.31,0,0,0-5.94-1.17,14.63,14.63,0,0,0-7.22,1.57,16.82,16.82,0,0,0-5.24,5H282.5l8-45.07h45.54v13.62H302.42Z" transform="translate(-184.6 -449.06)"/></svg>